<svg xmlns="http://www.w3.org/2000/svg" viewBox="0 0 64 64"><defs><style>.cls-1{fill:none;stroke:#000;stroke-linecap:round;stroke-linejoin:round;stroke-width:0.5px;}</style></defs><g id="Hassle_Free" data-name="Hassle Free"><path class="cls-1" d="M23.53,21.07C21,20.67,20.14,21.1,18,20"/><path class="cls-1" d="M27.24,48.8C33.13,51.31,36.05,51,37.77,50s0-2.75,0-2.75l-5.39-2.39s7.89,4,9.47,2,0-3,0-3l-7.1-3.93s9.34,5.66,10.79,3.69.92-2.9.92-2.9l-9.08-5.26s10.13,6.45,12,4.87,1.45-2.63.52-3.69-12.59-9.7-19.76-13.29"/><path class="cls-1" d="M23.19,46.85l.27.15"/><path class="cls-1" d="M19.4,44.32l.32.24"/><path class="cls-1" d="M15.89,41.33l.4.37"/><path class="cls-1" d="M9.58,34.56c.68.83,1.85,2.22,3.36,3.83"/><rect class="cls-1" x="8.6" y="16.11" width="5.57" height="19.55" transform="translate(14.46 -2.22) rotate(30)"/><path class="cls-1" d="M19.84,28.5s1.73.81,5.08-1.85c1.74-2,2-2.4,2-2.4L30,23.32a68.17,68.17,0,0,1,11.33,6.59c4.27,3.35,7.82,6,7.82,6a26.84,26.84,0,0,0,3.93-3.26c0-1.2-2.79-4.95-4.38-8.16a42.55,42.55,0,0,0-2.9-5.09,7.25,7.25,0,0,1-3.76.25A51.13,51.13,0,0,0,35,18.4c-1.74,0-8.45-.21-10.29,1.3a52.53,52.53,0,0,0-4.17,5.73C20.11,26,18.77,27.43,19.84,28.5Z"/><path class="cls-1" d="M12.89,41.71a2.07,2.07,0,0,1-.27-2.93c.8-.94,1.47-2.28,2.81-1.88.94.48,1.42,1,1.57,1.66a2.19,2.19,0,0,1-.32,1.63,5.77,5.77,0,0,1-1.92,2.06A2.17,2.17,0,0,1,12.89,41.71Z"/><rect class="cls-1" x="49.3" y="15.08" width="5.57" height="19.55" transform="translate(-5.45 29.37) rotate(-30)"/><path class="cls-1" d="M17.16,40.45,20,36.84a1.43,1.43,0,0,1,1.6-.4,2.29,2.29,0,0,1,1.61,2,1.88,1.88,0,0,1-.24,1.06c-.62,1.11-2,2.71-2.57,3.52-.34.48-.66,1-1,1.43a2.48,2.48,0,0,1-1.06.9,1.82,1.82,0,0,1-1.37-.16,2.63,2.63,0,0,1-1.23-1.72c-.19-.84.39-1.41.84-2Z"/><path class="cls-1" d="M20.57,43.39l2-2.53a1.57,1.57,0,0,1,2.21,0,2.13,2.13,0,0,1,.59,2.66c-.26.54-2.94,4.14-2.94,4.14a1.59,1.59,0,0,1-2.27.4,2.07,2.07,0,0,1-1.07-2.4,5.32,5.32,0,0,1,.62-1.1C20.13,44,20.57,43.39,20.57,43.39Z"/><path class="cls-1" d="M23.83,46.52l.48-.64A6.82,6.82,0,0,1,25,45a1.75,1.75,0,0,1,.93-.53,2.55,2.55,0,0,1,2.22,1.39,2.35,2.35,0,0,1-.58,2.4c-.46.64-.94,1.26-1.44,1.88a2.39,2.39,0,0,1-.75.7,1.87,1.87,0,0,1-2-.49,2.14,2.14,0,0,1-.71-1.44A2.44,2.44,0,0,1,23,47.72,10.79,10.79,0,0,1,23.83,46.52Z"/></g></svg>